<svg width="145" height="30" viewBox="0 0 145 30" fill="none" xmlns="http://www.w3.org/2000/svg">
<path d="M27.16 1.52C27.16 1.73333 26.9067 1.85333 26.4 1.88C25.2267 1.90667 24.44 2.08 24.04 2.4C23.64 2.72 23.2267 3.46666 22.8 4.64L21.44 8.36C18.16 17.3467 15.8533 24.24 14.52 29.04C14.44 29.36 14.3067 29.52 14.12 29.52C13.9067 29.52 13.4667 28.52 12.8 26.52C11.6 22.8667 10.6667 20.12 10 18.28C9.28 16.2533 8.21333 13.2267 6.8 9.2L4.88 3.8C4.61333 3.05333 4.32 2.56 4 2.32C3.68 2.05333 3.14667 1.90667 2.4 1.88C1.52 1.85333 1 1.82667 0.84 1.8C0.653333 1.77333 0.56 1.66666 0.56 1.48C0.56 1.24 0.826667 1.12 1.36 1.12H1.72C2.2 1.12 3.02667 1.14667 4.2 1.2C5.4 1.22667 6.25333 1.24 6.76 1.24C6.89333 1.24 7.4 1.22667 8.28 1.2C9.18667 1.14667 10.4667 1.12 12.12 1.12H12.68C13.16 1.12 13.4 1.25333 13.4 1.52C13.4 1.81333 12.92 1.97333 11.96 2L9.52 2.08C8.96 2.10666 8.68 2.28 8.68 2.6C8.68 2.65333 8.70667 2.76 8.76 2.92L9.08 3.96C9.13333 4.17333 10.4267 7.93333 12.96 15.24C13.3867 16.4933 14.2 18.88 15.4 22.4C19.8 9.94667 22 3.4 22 2.76C22 2.12 21.3467 1.82667 20.04 1.88L18.8 1.92C18.48 1.92 18.32 1.81333 18.32 1.6C18.32 1.33333 18.72 1.2 19.52 1.2C19.68 1.2 20.1333 1.2 20.88 1.2C21.6267 1.22667 22.1733 1.24 22.52 1.24H23.8L26.44 1.2C26.92 1.2 27.16 1.30666 27.16 1.52ZM34.9925 28.76C34.9925 28.92 34.8725 29 34.6325 29H34.2325L33.3925 28.96H32.3525C32.1392 28.96 31.9125 28.9467 31.6725 28.92C31.4592 28.92 31.3125 28.92 31.2325 28.92C30.9658 28.92 30.4592 28.9333 29.7125 28.96C28.9925 28.9867 28.4458 29 28.0725 29H27.9125C27.4592 29 27.2325 28.92 27.2325 28.76C27.2325 28.5467 27.5258 28.4267 28.1125 28.4C28.9125 28.3467 29.3258 28.2533 29.3525 28.12C29.4058 27.9867 29.4325 27.4133 29.4325 26.4V13.52C29.4325 12.48 29.4058 11.88 29.3525 11.72C29.2992 11.5333 29.0992 11.4267 28.7525 11.4L27.9525 11.36H27.5525C27.3125 11.36 27.1925 11.2667 27.1925 11.08C27.1925 10.8933 27.3658 10.8 27.7125 10.8C27.6858 10.8 27.7658 10.8 27.9525 10.8C28.1392 10.8267 28.4325 10.84 28.8325 10.84H31.7125C31.8725 10.84 32.1125 10.8267 32.4325 10.8C32.7525 10.8 33.0458 10.8 33.3125 10.8H34.3125C34.7392 10.8 34.9525 10.9067 34.9525 11.12C34.9525 11.28 34.4992 11.3733 33.5925 11.4C33.2192 11.4 32.9925 11.4667 32.9125 11.6C32.8325 11.7067 32.7925 12.0667 32.7925 12.68V27.76C32.7925 28.0267 32.8858 28.2 33.0725 28.28C33.2858 28.36 33.7658 28.4267 34.5125 28.48C34.8325 28.5067 34.9925 28.6 34.9925 28.76ZM52.4019 15.8C52.4019 16.1733 52.2419 16.36 51.9219 16.36C51.5752 16.36 51.3885 16.1067 51.3619 15.6C51.2819 14.5067 51.0552 13.6133 50.6819 12.92C50.1752 11.96 49.0152 11.48 47.2019 11.48C46.9352 11.48 46.5219 11.4933 45.9619 11.52V27.6C45.9619 28.1067 46.3485 28.3733 47.1219 28.4C47.8952 28.4267 48.2819 28.5333 48.2819 28.72C48.2819 28.9067 48.0552 29 47.6019 29H47.3219C47.0819 29 46.7085 28.9867 46.2019 28.96C45.6952 28.96 45.3352 28.96 45.1219 28.96C45.0685 28.96 44.7619 28.96 44.2019 28.96C43.6419 28.9867 42.9219 29 42.0419 29H41.0819C40.5485 29 40.2819 28.9067 40.2819 28.72C40.2819 28.5333 40.7219 28.4267 41.6019 28.4C41.9219 28.4 42.1352 28.3733 42.2419 28.32C42.4552 28.2667 42.5752 28.1333 42.6019 27.92C42.6285 27.68 42.6419 27 42.6419 25.88V11.52C40.5619 11.4933 39.2019 11.7067 38.5619 12.16C37.9485 12.6133 37.5352 13.68 37.3219 15.36C37.2419 15.9733 37.0685 16.28 36.8019 16.28C36.5619 16.28 36.4419 15.9733 36.4419 15.36C36.4419 14.5867 36.5619 13.0667 36.8019 10.8L46.1219 10.88C46.9485 10.88 48.6285 10.8533 51.1619 10.8C51.3752 10.8 51.6552 10.7467 52.0019 10.64L52.0419 11.48L52.1619 12.92L52.2819 14.6L52.3619 15.32C52.3885 15.56 52.4019 15.72 52.4019 15.8ZM71.595 28.8C71.595 28.96 71.3283 29.04 70.795 29.04H70.515L68.035 28.96H66.915C66.4617 28.96 65.835 28.9733 65.035 29L63.835 29.04L63.115 29.08H62.915C62.435 29.08 62.195 28.9733 62.195 28.76C62.195 28.5467 62.675 28.4267 63.635 28.4C64.7817 28.3733 65.355 28.24 65.355 28C65.355 27.9467 65.275 27.6933 65.115 27.24C65.0617 27.0267 64.755 26.1333 64.195 24.56L63.715 23.2H57.995C56.9017 25.9467 56.355 27.5333 56.355 27.96C56.355 28.2 56.515 28.3333 56.835 28.36L57.355 28.4H57.955L58.315 28.44C58.635 28.44 58.795 28.5333 58.795 28.72C58.795 28.9333 58.515 29.04 57.955 29.04C57.875 29.04 57.395 29.0267 56.515 29C55.6617 28.9467 54.9017 28.92 54.235 28.92H53.875L53.515 28.96L53.075 29H52.995C52.5683 29 52.355 28.92 52.355 28.76C52.355 28.5733 52.5283 28.4667 52.875 28.44C53.355 28.4133 53.675 28.3867 53.835 28.36C54.2883 28.28 54.5817 28.16 54.715 28C54.875 27.92 55.5283 26.4 56.675 23.44C57.1283 22.24 57.5683 21.12 57.995 20.08C58.155 19.7067 58.2617 19.4267 58.315 19.24C58.3683 19.0533 58.475 18.7733 58.635 18.4C59.0883 17.3067 59.7283 15.6533 60.555 13.44L61.155 11.76L61.435 11.04C61.595 10.64 61.755 10.44 61.915 10.44C61.995 10.44 62.1683 10.8133 62.435 11.56C63.235 13.5067 65.3017 18.6533 68.635 27C68.955 27.8267 69.2617 28.2667 69.555 28.32C69.635 28.3467 70.0617 28.3867 70.835 28.44C71.3417 28.4667 71.595 28.5867 71.595 28.8ZM63.475 22.48L60.875 15.64C60.235 17.24 59.355 19.52 58.235 22.48H63.475ZM89.1741 21.2C89.1741 23.4933 88.2941 25.4533 86.5341 27.08C84.8007 28.68 82.7074 29.48 80.2541 29.48C78.8141 29.48 77.0941 29.04 75.0941 28.16C74.5607 27.92 74.1607 27.8 73.8941 27.8C73.5741 27.8 73.3741 28.1867 73.2941 28.96C73.2674 29.36 73.0941 29.56 72.7741 29.56C72.5074 29.56 72.3741 29.4 72.3741 29.08C72.3741 28.8667 72.3874 28.7067 72.4141 28.6C72.6274 26.9733 72.7341 25.4667 72.7341 24.08C72.7341 23.8133 72.7074 23.0667 72.6541 21.84C72.6274 21.68 72.6141 21.4667 72.6141 21.2C72.6141 20.8 72.7741 20.6 73.0941 20.6C73.3607 20.6 73.5474 20.92 73.6541 21.56C74.3474 26.3067 76.6007 28.68 80.4141 28.68C82.0407 28.68 83.2941 28.2267 84.1741 27.32C85.0807 26.3867 85.5341 25.08 85.5341 23.4C85.5341 21.9067 85.0941 20.64 84.2141 19.6C83.3607 18.5333 81.8807 17.48 79.7741 16.44C77.2407 15.1867 75.4807 13.9733 74.4941 12.8C73.5074 11.6267 73.0141 10.1733 73.0141 8.44C73.0141 6.22667 73.7207 4.4 75.1341 2.96C76.5741 1.52 78.3874 0.799998 80.5741 0.799998C81.4807 0.799998 82.7341 1.10666 84.3341 1.72C84.8941 1.93333 85.3074 2.04 85.5741 2.04C85.8674 2.04 86.0541 1.98667 86.1341 1.88C86.2407 1.77333 86.3341 1.49333 86.4141 1.04C86.4674 0.773331 86.6141 0.639998 86.8541 0.639998C87.1207 0.639998 87.2541 0.799998 87.2541 1.12C87.2541 1.33333 87.2407 1.49333 87.2141 1.6C87.1341 2.24 87.0941 3.01333 87.0941 3.92C87.0941 5.2 87.1607 6.21333 87.2941 6.96L87.3341 7.6C87.3607 7.89333 87.2407 8.04 86.9741 8.04C86.6807 8.04 86.4807 7.73333 86.3741 7.12C86.0807 5.54667 85.3874 4.24 84.2941 3.2C83.2007 2.13333 81.9741 1.6 80.6141 1.6C79.2807 1.6 78.2141 2.02666 77.4141 2.88C76.6407 3.73333 76.2541 4.89333 76.2541 6.36C76.2541 8.06667 76.8274 9.44 77.9741 10.48C78.6141 11.0667 80.0007 11.8933 82.1341 12.96C84.6407 14.2133 86.4407 15.4933 87.5341 16.8C88.6274 18.08 89.1741 19.5467 89.1741 21.2ZM107.376 23.04C107.376 23.12 107.363 23.3467 107.336 23.72C107.229 25.16 107.176 26.1733 107.176 26.76C107.176 27.16 107.216 27.7467 107.296 28.52V28.8C107.296 29.0667 107.189 29.2 106.976 29.2C106.763 29.2 106.549 28.9733 106.336 28.52L105.976 27.76C105.949 27.7067 105.909 27.6267 105.856 27.52C104.656 28.72 103.003 29.32 100.896 29.32C98.2026 29.32 95.9626 28.4267 94.1759 26.64C92.3893 24.8267 91.4959 22.56 91.4959 19.84C91.4959 17.12 92.3226 14.8933 93.9759 13.16C95.6293 11.4 97.7359 10.52 100.296 10.52C102.296 10.52 103.976 11.04 105.336 12.08C105.443 12.1867 105.549 12.24 105.656 12.24C105.789 12.24 105.909 12.0667 106.016 11.72C106.203 11.1333 106.429 10.84 106.696 10.84C106.883 10.84 106.976 10.9467 106.976 11.16C106.976 11.1867 106.949 11.3067 106.896 11.52C106.736 12.4267 106.643 13.7733 106.616 15.56C106.589 16.68 106.443 17.24 106.176 17.24C105.963 17.24 105.816 17.04 105.736 16.64C105.469 15.2 105.149 14.1333 104.776 13.44C103.923 11.92 102.523 11.16 100.576 11.16C98.9493 11.16 97.6559 11.9467 96.6959 13.52C95.7359 15.0933 95.2559 17.2267 95.2559 19.92C95.2559 22.6133 95.7893 24.7467 96.8559 26.32C97.9226 27.8933 99.3626 28.68 101.176 28.68C102.563 28.68 103.709 28.2133 104.616 27.28C105.549 26.32 106.163 25 106.456 23.32C106.589 22.6267 106.763 22.28 106.976 22.28C107.243 22.28 107.376 22.5333 107.376 23.04ZM127.376 28.8C127.376 28.96 127.11 29.04 126.576 29.04H126.296L123.816 28.96H122.696C122.243 28.96 121.616 28.9733 120.816 29L119.616 29.04L118.896 29.08H118.696C118.216 29.08 117.976 28.9733 117.976 28.76C117.976 28.5467 118.456 28.4267 119.416 28.4C120.563 28.3733 121.136 28.24 121.136 28C121.136 27.9467 121.056 27.6933 120.896 27.24C120.843 27.0267 120.536 26.1333 119.976 24.56L119.496 23.2H113.776C112.683 25.9467 112.136 27.5333 112.136 27.96C112.136 28.2 112.296 28.3333 112.616 28.36L113.136 28.4H113.736L114.096 28.44C114.416 28.44 114.576 28.5333 114.576 28.72C114.576 28.9333 114.296 29.04 113.736 29.04C113.656 29.04 113.176 29.0267 112.296 29C111.443 28.9467 110.683 28.92 110.016 28.92H109.656L109.296 28.96L108.856 29H108.776C108.35 29 108.136 28.92 108.136 28.76C108.136 28.5733 108.31 28.4667 108.656 28.44C109.136 28.4133 109.456 28.3867 109.616 28.36C110.07 28.28 110.363 28.16 110.496 28C110.656 27.92 111.31 26.4 112.456 23.44C112.91 22.24 113.35 21.12 113.776 20.08C113.936 19.7067 114.043 19.4267 114.096 19.24C114.15 19.0533 114.256 18.7733 114.416 18.4C114.87 17.3067 115.51 15.6533 116.336 13.44L116.936 11.76L117.216 11.04C117.376 10.64 117.536 10.44 117.696 10.44C117.776 10.44 117.95 10.8133 118.216 11.56C119.016 13.5067 121.083 18.6533 124.416 27C124.736 27.8267 125.043 28.2667 125.336 28.32C125.416 28.3467 125.843 28.3867 126.616 28.44C127.123 28.4667 127.376 28.5867 127.376 28.8ZM119.256 22.48L116.656 15.64C116.016 17.24 115.136 19.52 114.016 22.48H119.256ZM144.595 11.12C144.595 11.3333 144.302 11.44 143.715 11.44C143.635 11.44 143.449 11.4267 143.155 11.4H142.715C142.475 11.4 142.329 11.4533 142.275 11.56C142.249 11.6667 142.235 12.0267 142.235 12.64V27.32C142.235 28.28 142.222 28.84 142.195 29C142.169 29.16 142.049 29.24 141.835 29.24C141.542 29.24 140.595 28.1333 138.995 25.92C138.809 25.6267 138.515 25.2267 138.115 24.72C138.062 24.64 137.915 24.44 137.675 24.12C136.342 22.36 133.929 19.0533 130.435 14.2V26.8C130.435 27.7867 130.569 28.3067 130.835 28.36C131.129 28.4133 131.649 28.44 132.395 28.44H132.555C132.875 28.44 133.035 28.5333 133.035 28.72C133.035 28.9333 132.742 29.04 132.155 29.04C132.049 29.04 131.609 29.0133 130.835 28.96C130.435 28.9333 130.075 28.92 129.755 28.92C129.489 28.92 129.222 28.9333 128.955 28.96C128.449 29.0133 127.902 29.04 127.315 29.04C126.889 29.04 126.675 28.9333 126.675 28.72C126.675 28.5333 126.929 28.44 127.435 28.44H127.795L128.315 28.4C128.955 28.3467 129.289 28.2267 129.315 28.04C129.342 27.9333 129.355 27.5467 129.355 26.88V15.88C129.355 13.88 129.235 12.68 128.995 12.28C128.675 11.7467 128.049 11.48 127.115 11.48C126.449 11.48 126.115 11.36 126.115 11.12C126.115 10.9333 126.289 10.84 126.635 10.84H126.795L128.995 10.88C129.102 10.88 129.275 10.88 129.515 10.88C129.782 10.8533 130.022 10.84 130.235 10.84H131.715L141.155 23.8V12.68C141.155 12.0133 141.129 11.6267 141.075 11.52C141.022 11.4133 140.809 11.36 140.435 11.36C140.089 11.36 139.809 11.3733 139.595 11.4H139.355C138.849 11.4 138.595 11.2933 138.595 11.08C138.595 10.9467 138.715 10.8667 138.955 10.84C139.222 10.8133 140.129 10.8 141.675 10.8C143.142 10.8 143.995 10.8133 144.235 10.84C144.475 10.8667 144.595 10.96 144.595 11.12Z" fill="#156359"/>
</svg>
